<svg width="28" height="28" viewBox="0 0 28 28" fill="none" xmlns="http://www.w3.org/2000/svg">
    <path d="M0 8C0 3.58172 3.58172 0 8 0H20C24.4183 0 28 3.58172 28 8V20C28 24.4183 24.4183 28 20 28H8C3.58172 28 0 24.4183 0 20V8Z" fill="#FD9246"></path>
    <g clip-path="url(#clip0_5268_6432)">
        <path d="M23.2361 19.9705C23.7368 19.2061 24 18.3632 24 17.5158C24 14.6848 21.2575 12.3746 17.8333 12.2539C17.0355 14.6348 14.659 16.6282 11.1702 16.8785C11.1393 17.0891 11.1094 17.3 11.1094 17.5159C11.1094 20.4238 14.0007 22.7893 17.5547 22.7893C18.7729 22.7893 19.9557 22.5049 20.9925 21.9642L23.2178 22.7555C23.4266 22.8301 23.6668 22.78 23.8289 22.6171C23.9886 22.4568 24.0418 22.2188 23.9657 22.0054L23.2361 19.9705ZM15.7968 18.1018C15.7968 18.4256 15.5348 18.6877 15.2109 18.6877C14.887 18.6877 14.625 18.4256 14.625 18.1018V16.9299C14.625 16.606 14.887 16.3439 15.2109 16.3439C15.5348 16.3439 15.7968 16.606 15.7968 16.9299V18.1018ZM18.1406 18.1018C18.1406 18.4256 17.8785 18.6877 17.5546 18.6877C17.2308 18.6877 16.9687 18.4256 16.9687 18.1018V16.9299C16.9687 16.606 17.2308 16.3439 17.5546 16.3439C17.8785 16.3439 18.1406 16.606 18.1406 16.9299V18.1018ZM20.4843 18.1018C20.4843 18.4256 20.2223 18.6877 19.8984 18.6877C19.5745 18.6877 19.3125 18.4256 19.3125 18.1018V16.9299C19.3125 16.606 19.5745 16.3439 19.8984 16.3439C20.2223 16.3439 20.4843 16.606 20.4843 16.9299V18.1018Z" fill="white"></path>
        <path d="M10.4453 5.21122C9.22594 5.21122 8.04379 5.4956 7.0075 6.03634L4.78219 5.24497C4.56934 5.16888 4.33074 5.22267 4.17109 5.38345C4.01145 5.54368 3.95824 5.78169 4.03434 5.99513L4.76391 8.02989C4.2632 8.79435 4 9.6372 4 10.4847C4 13.3926 6.89137 15.7581 10.4453 15.7581C13.9125 15.7581 16.8906 13.4692 16.8906 10.4847C16.8906 7.57669 13.9993 5.21122 10.4453 5.21122ZM10.4453 13.4143C10.1217 13.4143 9.85938 13.152 9.85938 12.8284C9.85938 12.5047 10.1217 12.2425 10.4453 12.2425C10.7689 12.2425 11.0312 12.5047 11.0312 12.8284C11.0312 13.152 10.7689 13.4143 10.4453 13.4143ZM11.0387 10.9681C11.0387 11.2914 10.7726 11.605 10.4493 11.605C10.1254 11.605 9.85934 11.3944 9.85934 11.0706C9.85934 10.4795 10.1746 10.0326 10.6432 9.86493C10.875 9.78138 11.0312 9.55993 11.0312 9.31275C11.0312 8.98946 10.7686 8.72681 10.4453 8.72681C10.122 8.72681 9.85934 8.98946 9.85934 9.31275C9.85934 9.63661 9.59727 9.89868 9.2734 9.89868C8.94953 9.89868 8.68746 9.63661 8.68746 9.31275C8.68746 8.34345 9.47598 7.55493 10.4453 7.55493C11.4146 7.55493 12.2031 8.34345 12.2031 9.31275C12.2031 10.0526 11.7351 10.7181 11.0387 10.9681Z" fill="white"></path>
    </g>
    <defs>
        <clipPath id="clip0_5268_6432">
            <rect width="20" height="20" fill="white" transform="translate(4 4)"></rect>
        </clipPath>
    </defs>
</svg>